<svg width="25" height="24" viewBox="0 0 25 24" fill="none" xmlns="http://www.w3.org/2000/svg">
<mask id="mask0_109_5149" style="mask-type:alpha" maskUnits="userSpaceOnUse" x="0" y="0" width="25" height="24">
<rect x="0.644348" width="24" height="24" fill="#D9D9D9"/>
</mask>
<g mask="url(#mask0_109_5149)">
<path d="M6.49435 17.1C7.34435 16.45 8.29435 15.9375 9.34435 15.5625C10.3943 15.1875 11.4943 15 12.6443 15C13.7943 15 14.8943 15.1875 15.9443 15.5625C16.9943 15.9375 17.9443 16.45 18.7943 17.1C19.3777 16.4167 19.8318 15.6417 20.1568 14.775C20.4818 13.9083 20.6443 12.9833 20.6443 12C20.6443 9.78333 19.8652 7.89583 18.3068 6.3375C16.7485 4.77917 14.861 4 12.6443 4C10.4277 4 8.54018 4.77917 6.98185 6.3375C5.42351 7.89583 4.64435 9.78333 4.64435 12C4.64435 12.9833 4.80685 13.9083 5.13185 14.775C5.45685 15.6417 5.91101 16.4167 6.49435 17.1ZM12.6443 13C11.661 13 10.8318 12.6625 10.1568 11.9875C9.48185 11.3125 9.14435 10.4833 9.14435 9.5C9.14435 8.51667 9.48185 7.6875 10.1568 7.0125C10.8318 6.3375 11.661 6 12.6443 6C13.6277 6 14.4568 6.3375 15.1318 7.0125C15.8068 7.6875 16.1443 8.51667 16.1443 9.5C16.1443 10.4833 15.8068 11.3125 15.1318 11.9875C14.4568 12.6625 13.6277 13 12.6443 13ZM12.6443 22C11.261 22 9.96101 21.7375 8.74435 21.2125C7.52768 20.6875 6.46935 19.975 5.56935 19.075C4.66935 18.175 3.95685 17.1167 3.43185 15.9C2.90685 14.6833 2.64435 13.3833 2.64435 12C2.64435 10.6167 2.90685 9.31667 3.43185 8.1C3.95685 6.88333 4.66935 5.825 5.56935 4.925C6.46935 4.025 7.52768 3.3125 8.74435 2.7875C9.96101 2.2625 11.261 2 12.6443 2C14.0277 2 15.3277 2.2625 16.5443 2.7875C17.761 3.3125 18.8193 4.025 19.7193 4.925C20.6193 5.825 21.3318 6.88333 21.8568 8.1C22.3818 9.31667 22.6443 10.6167 22.6443 12C22.6443 13.3833 22.3818 14.6833 21.8568 15.9C21.3318 17.1167 20.6193 18.175 19.7193 19.075C18.8193 19.975 17.761 20.6875 16.5443 21.2125C15.3277 21.7375 14.0277 22 12.6443 22ZM12.6443 20C13.5277 20 14.361 19.8708 15.1443 19.6125C15.9277 19.3542 16.6443 18.9833 17.2943 18.5C16.6443 18.0167 15.9277 17.6458 15.1443 17.3875C14.361 17.1292 13.5277 17 12.6443 17C11.761 17 10.9277 17.1292 10.1443 17.3875C9.36101 17.6458 8.64435 18.0167 7.99435 18.5C8.64435 18.9833 9.36101 19.3542 10.1443 19.6125C10.9277 19.8708 11.761 20 12.6443 20ZM12.6443 11C13.0777 11 13.436 10.8583 13.7193 10.575C14.0027 10.2917 14.1443 9.93333 14.1443 9.5C14.1443 9.06667 14.0027 8.70833 13.7193 8.425C13.436 8.14167 13.0777 8 12.6443 8C12.211 8 11.8527 8.14167 11.5693 8.425C11.286 8.70833 11.1443 9.06667 11.1443 9.5C11.1443 9.93333 11.286 10.2917 11.5693 10.575C11.8527 10.8583 12.211 11 12.6443 11Z" fill="#AFB8C6"/>
</g>
</svg>
