<svg width="25" height="24" viewBox="0 0 25 24" fill="none" xmlns="http://www.w3.org/2000/svg">
<mask id="mask0_109_5179" style="mask-type:alpha" maskUnits="userSpaceOnUse" x="0" y="0" width="25" height="24">
<rect x="0.644348" width="24" height="24" fill="#D9D9D9"/>
</mask>
<g mask="url(#mask0_109_5179)">
<path d="M5.64435 21C5.09435 21 4.62351 20.8042 4.23185 20.4125C3.84018 20.0208 3.64435 19.55 3.64435 19V5C3.64435 4.45 3.84018 3.97917 4.23185 3.5875C4.62351 3.19583 5.09435 3 5.64435 3H9.84435C10.061 2.4 10.4235 1.91667 10.9318 1.55C11.4402 1.18333 12.011 1 12.6443 1C13.2777 1 13.8485 1.18333 14.3568 1.55C14.8652 1.91667 15.2277 2.4 15.4443 3H19.6443C20.1943 3 20.6652 3.19583 21.0568 3.5875C21.4485 3.97917 21.6443 4.45 21.6443 5V19C21.6443 19.55 21.4485 20.0208 21.0568 20.4125C20.6652 20.8042 20.1943 21 19.6443 21H5.64435ZM5.64435 19H19.6443V5H5.64435V19ZM8.64435 17H13.6443C13.9277 17 14.1652 16.9042 14.3568 16.7125C14.5485 16.5208 14.6443 16.2833 14.6443 16C14.6443 15.7167 14.5485 15.4792 14.3568 15.2875C14.1652 15.0958 13.9277 15 13.6443 15H8.64435C8.36101 15 8.12351 15.0958 7.93185 15.2875C7.74018 15.4792 7.64435 15.7167 7.64435 16C7.64435 16.2833 7.74018 16.5208 7.93185 16.7125C8.12351 16.9042 8.36101 17 8.64435 17ZM8.64435 13H16.6443C16.9277 13 17.1652 12.9042 17.3568 12.7125C17.5485 12.5208 17.6443 12.2833 17.6443 12C17.6443 11.7167 17.5485 11.4792 17.3568 11.2875C17.1652 11.0958 16.9277 11 16.6443 11H8.64435C8.36101 11 8.12351 11.0958 7.93185 11.2875C7.74018 11.4792 7.64435 11.7167 7.64435 12C7.64435 12.2833 7.74018 12.5208 7.93185 12.7125C8.12351 12.9042 8.36101 13 8.64435 13ZM8.64435 9H16.6443C16.9277 9 17.1652 8.90417 17.3568 8.7125C17.5485 8.52083 17.6443 8.28333 17.6443 8C17.6443 7.71667 17.5485 7.47917 17.3568 7.2875C17.1652 7.09583 16.9277 7 16.6443 7H8.64435C8.36101 7 8.12351 7.09583 7.93185 7.2875C7.74018 7.47917 7.64435 7.71667 7.64435 8C7.64435 8.28333 7.74018 8.52083 7.93185 8.7125C8.12351 8.90417 8.36101 9 8.64435 9ZM12.6443 4.25C12.861 4.25 13.0402 4.17917 13.1818 4.0375C13.3235 3.89583 13.3943 3.71667 13.3943 3.5C13.3943 3.28333 13.3235 3.10417 13.1818 2.9625C13.0402 2.82083 12.861 2.75 12.6443 2.75C12.4277 2.75 12.2485 2.82083 12.1068 2.9625C11.9652 3.10417 11.8943 3.28333 11.8943 3.5C11.8943 3.71667 11.9652 3.89583 12.1068 4.0375C12.2485 4.17917 12.4277 4.25 12.6443 4.25Z" fill="#AFB8C6"/>
</g>
</svg>
