<svg width="25" height="24" viewBox="0 0 25 24" fill="none" xmlns="http://www.w3.org/2000/svg">
<mask id="mask0_109_5126" style="mask-type:alpha" maskUnits="userSpaceOnUse" x="0" y="0" width="25" height="24">
<rect x="0.644348" width="24" height="24" fill="#D9D9D9"/>
</mask>
<g mask="url(#mask0_109_5126)">
<path d="M6.64435 19H9.64435V14C9.64435 13.7167 9.74018 13.4792 9.93185 13.2875C10.1235 13.0958 10.361 13 10.6443 13H14.6443C14.9277 13 15.1652 13.0958 15.3568 13.2875C15.5485 13.4792 15.6443 13.7167 15.6443 14V19H18.6443V10L12.6443 5.5L6.64435 10V19ZM4.64435 19V10C4.64435 9.68333 4.71518 9.38333 4.85685 9.1C4.99851 8.81667 5.19435 8.58333 5.44435 8.4L11.4443 3.9C11.7943 3.63333 12.1943 3.5 12.6443 3.5C13.0943 3.5 13.4943 3.63333 13.8443 3.9L19.8443 8.4C20.0943 8.58333 20.2902 8.81667 20.4318 9.1C20.5735 9.38333 20.6443 9.68333 20.6443 10V19C20.6443 19.55 20.4485 20.0208 20.0568 20.4125C19.6652 20.8042 19.1943 21 18.6443 21H14.6443C14.361 21 14.1235 20.9042 13.9318 20.7125C13.7402 20.5208 13.6443 20.2833 13.6443 20V15H11.6443V20C11.6443 20.2833 11.5485 20.5208 11.3568 20.7125C11.1652 20.9042 10.9277 21 10.6443 21H6.64435C6.09435 21 5.62351 20.8042 5.23185 20.4125C4.84018 20.0208 4.64435 19.55 4.64435 19Z" fill="#AFB8C6"/>
</g>
</svg>
