<svg width="16" height="16" viewBox="0 0 16 16" fill="none" xmlns="http://www.w3.org/2000/svg">
<mask id="mask0_93_3256" style="mask-type:alpha" maskUnits="userSpaceOnUse" x="0" y="0" width="16" height="16">
<rect width="16" height="16" fill="#D9D9D9"/>
</mask>
<g mask="url(#mask0_93_3256)">
<path d="M7.99995 8.0002C7.33328 8.0002 6.76662 7.76686 6.29995 7.3002C5.83328 6.83353 5.59995 6.26686 5.59995 5.6002C5.59995 4.93353 5.83328 4.36686 6.29995 3.9002C6.76662 3.43353 7.33328 3.2002 7.99995 3.2002C8.66662 3.2002 9.23328 3.43353 9.69995 3.9002C10.1666 4.36686 10.4 4.93353 10.4 5.6002C10.4 6.26686 10.1666 6.83353 9.69995 7.3002C9.23328 7.76686 8.66662 8.0002 7.99995 8.0002ZM3.19995 11.6002V11.2002C3.19995 10.9446 3.2694 10.703 3.40828 10.4752C3.54717 10.2474 3.73884 10.0558 3.98328 9.9002C4.5944 9.54464 5.24162 9.27242 5.92495 9.08353C6.60828 8.89464 7.29995 8.8002 7.99995 8.8002C8.69995 8.8002 9.39162 8.89464 10.075 9.08353C10.7583 9.27242 11.4055 9.54464 12.0166 9.9002C12.2611 10.0446 12.4527 10.2335 12.5916 10.4669C12.7305 10.7002 12.8 10.9446 12.8 11.2002V11.6002C12.8 11.9335 12.6833 12.2169 12.45 12.4502C12.2166 12.6835 11.9333 12.8002 11.6 12.8002H4.39995C4.06662 12.8002 3.78328 12.6835 3.54995 12.4502C3.31662 12.2169 3.19995 11.9335 3.19995 11.6002Z" fill="#949CAC"/>
</g>
</svg>
